<svg width="232" height="40" viewBox="0 0 232 40" fill="none" xmlns="http://www.w3.org/2000/svg">
<path fill-rule="evenodd" clip-rule="evenodd" d="M59.9629 16.0472C59.8528 21 64.1604 25.3543 69.1125 25.2441C74.0253 25.3543 78.3643 21 78.2936 16.0472C78.3643 11.0945 74.0253 6.74016 69.1125 6.85039C66.8015 6.85039 64.8757 7.81102 63.4922 9.41732V0H59.9707V16.0472H59.9629ZM213.667 16.0472C213.557 21 217.904 25.3543 222.848 25.2441C225.301 25.2441 227.651 23.8898 228.508 22.1417V24.9606H231.998V16.0472C232.108 11.0945 227.8 6.74016 222.848 6.85039C217.904 6.74016 213.557 11.0945 213.667 16.0472ZM228.547 16.0472C228.547 19.2913 226.095 21.8583 222.888 21.8583C219.681 21.8583 217.157 19.2913 217.157 16.0472C217.157 12.8031 219.649 10.2362 222.888 10.2362C226.126 10.2362 228.547 12.8031 228.547 16.0472ZM212.779 10.5197V7.13386H208.935V2.18898H205.445C205.445 10.5354 205.422 8.38583 205.445 16.5433C205.461 22.0709 208.33 24.8898 212.779 25.063V21.6772C210.216 21.4252 208.935 19.8268 208.935 16.5039V10.5118H212.779V10.5197ZM189.418 19.6142C189.418 23.1417 192.656 25.2441 196.398 25.2441C200.524 25.2441 203.378 23.3543 203.378 19.8976C203.378 17.3622 201.987 15.9764 200.281 15.3701C199.424 15.0472 198.363 14.7638 197.042 14.4803C194.37 13.874 193.198 13.4488 193.198 12.126C193.198 10.8031 194.48 9.95276 196.225 9.95276C197.97 9.95276 199.463 10.8819 199.463 12.1968H202.812C202.812 10.5197 202.207 9.23622 200.957 8.27559C199.746 7.31496 198.182 6.85039 196.296 6.85039C192.633 6.85039 189.708 8.95276 189.708 11.874C189.708 14.2992 191.06 15.6535 192.664 16.2598C193.481 16.5433 194.511 16.8268 195.792 17.1181C198.607 17.7244 199.888 18.189 199.888 19.7559C199.888 21.1811 198.638 22.1102 196.468 22.1102C194.299 22.1102 192.766 21.1496 192.766 19.6142H189.418ZM183.404 2.53543C183.404 3.70866 184.363 4.67717 185.542 4.67717C186.721 4.67717 187.641 3.71654 187.641 2.53543C187.641 1.35433 186.714 0.393701 185.542 0.393701C184.371 0.393701 183.404 1.28346 183.404 2.53543ZM183.797 24.9606H187.287V7.13386H183.797V24.9606ZM171.661 24.9606H175.151L182.343 7.13386H178.68L173.414 20.4331L168.178 7.13386H164.515L171.669 24.9606H171.661ZM63.4136 16.0472C63.4136 12.8031 65.9054 10.2362 69.1046 10.2362C72.3039 10.2362 74.8035 12.8031 74.8035 16.0472C74.8035 19.2913 72.3117 21.8583 69.1046 21.8583C65.8976 21.8583 63.4136 19.2913 63.4136 16.0472ZM92.4268 7.13386V16.5118C92.4268 20.0787 90.894 21.8583 88.0878 21.8583C85.2816 21.8583 83.7409 20.0787 83.7409 16.5118V7.13386H80.2508V16.5118C80.2508 22.3228 83.3479 25.2441 88.0799 25.2441C92.8119 25.2441 95.909 22.3228 95.909 16.5118V7.13386H92.4189H92.4268ZM106.914 6.85039C101.969 6.74016 97.764 11.126 97.8741 16.0866C97.764 21.0394 102.001 25.3543 107.024 25.252C110.585 25.252 113.784 23.2205 115.356 20.1181L111.19 20.0787C110.089 21.252 108.659 21.8583 106.922 21.8583C104.076 21.8583 101.907 20.0079 101.616 17.3307H115.993C116.063 16.8661 116.103 16.3307 116.103 15.7244C115.961 10.3386 111.544 6.84252 106.922 6.84252L106.914 6.85039ZM101.608 14.4803C102.284 11.9449 104.312 10.2362 107.016 10.2362C109.539 10.2362 111.677 12.0157 112.353 14.4803H101.6H101.608ZM133.71 15.5827C133.71 9.77165 130.613 6.85039 125.881 6.85039C121.149 6.85039 118.052 9.77165 118.052 15.5827V24.9606H121.542V15.5827C121.542 12.0157 123.075 10.2362 125.889 10.2362C128.703 10.2362 130.228 12.0157 130.228 15.5827V24.9606H133.718V15.5827H133.71ZM135.675 16.0472C135.565 21 139.912 25.3543 144.856 25.2441C147.309 25.2441 149.659 23.8898 150.516 22.1417V24.9606H154.006V16.0472C154.116 11.0945 149.808 6.74016 144.856 6.85039C139.912 6.74016 135.565 11.0945 135.675 16.0472ZM150.547 16.0472C150.547 19.2913 148.095 21.8583 144.888 21.8583C141.681 21.8583 139.157 19.2913 139.157 16.0472C139.157 12.8031 141.649 10.2362 144.888 10.2362C148.126 10.2362 150.547 12.8031 150.547 16.0472Z" fill="#002B5C"/>
<path fill-rule="evenodd" clip-rule="evenodd" d="M64.6241 39.8661H63.618V37.685H60.9769V39.8661H59.9629V34.4803H60.9769V36.748H63.618V34.4803H64.6241V39.8661ZM71.3213 39.8583H67.2967V34.4724H71.3213V35.4567H68.3029V36.6929H71.2113V37.6378H68.3029V38.8504H71.3213V39.8583ZM78.0106 39.8583L77.5547 38.8425H74.7406L74.2768 39.8583H73.1764L75.5896 34.4724H76.6979L79.1111 39.8583H78.0027H78.0106ZM77.1459 37.8976L76.1477 35.6063L75.1494 37.8976H77.1459ZM81.1705 34.4646H82.1845V38.9134H84.9514V39.8504H81.1705V34.4646ZM87.624 39.8583V35.3937H85.9183V34.4724H90.3437V35.3937H88.638V39.8583H87.624ZM97.1667 39.8661H96.1605V37.685H93.5194V39.8661H92.5054V34.4803H93.5194V36.748H96.1605V34.4803H97.1667V39.8661ZM107.975 39.8583L107.519 38.8425H104.705L104.241 39.8583H103.141L105.554 34.4724H106.662L109.075 39.8583H107.967H107.975ZM107.11 37.8976L106.112 35.6063L105.114 37.8976H107.11ZM111.96 34.4646L114.821 38.0866V34.4646H115.835V39.8504H115.01L112.149 36.2598V39.8504H111.135V34.4646H111.96ZM120.615 34.4646C121.063 34.4646 121.456 34.5354 121.809 34.685C122.155 34.8346 122.438 35.0394 122.65 35.2913C122.863 35.5433 123.028 35.8268 123.138 36.1339C123.248 36.4409 123.303 36.7638 123.311 37.1102C123.311 37.4567 123.264 37.7953 123.161 38.1181C123.059 38.4409 122.894 38.7323 122.682 38.9921C122.47 39.252 122.187 39.4646 121.833 39.622C121.479 39.7795 121.07 39.8583 120.622 39.8583H118.508V34.4724H120.622L120.615 34.4646ZM119.506 35.4331V38.8819H120.615C121.181 38.8819 121.605 38.7087 121.888 38.3622C122.171 38.0157 122.305 37.5984 122.297 37.1102C122.289 36.6457 122.139 36.2441 121.857 35.9213C121.574 35.5984 121.157 35.4331 120.615 35.4331H119.506ZM134.355 39.7874V39.8583H133.191L131.635 38.0551H130.605V39.8583H129.591V34.4646C129.874 34.4646 130.299 34.4646 130.865 34.4646C131.431 34.4646 131.863 34.4646 132.146 34.4646C132.751 34.4646 133.223 34.6457 133.569 34.9921C133.915 35.3386 134.08 35.7559 134.08 36.252C134.08 36.6614 133.97 37.0236 133.757 37.3307C133.545 37.6378 133.199 37.8425 132.72 37.9449L134.347 39.7874H134.355ZM132.146 35.4173H130.605V37.1417H132.146C132.445 37.1417 132.68 37.0551 132.83 36.8898C132.987 36.7244 133.066 36.5197 133.066 36.2835C133.066 36.0472 132.987 35.8425 132.83 35.6772C132.673 35.5118 132.445 35.4252 132.146 35.4252V35.4173ZM140.604 39.8583H136.579V34.4724H140.604V35.4567H137.585V36.6929H140.502V37.6378H137.585V38.8504H140.604V39.8583ZM146.932 38.4803L147.623 39.1811C147.089 39.7165 146.405 39.9842 145.58 39.9842C145.1 39.9842 144.668 39.9055 144.298 39.748C143.921 39.5906 143.622 39.378 143.402 39.1181C143.182 38.8504 143.009 38.5591 142.899 38.2362C142.789 37.9134 142.726 37.5669 142.726 37.2047C142.726 36.8425 142.781 36.4961 142.899 36.1654C143.017 35.8346 143.19 35.5276 143.418 35.2598C143.646 34.9843 143.945 34.7717 144.322 34.6063C144.699 34.4409 145.116 34.3622 145.58 34.3622C146.334 34.3622 146.994 34.6378 147.553 35.189L146.877 35.8425C146.531 35.5039 146.098 35.3307 145.58 35.3307C144.974 35.3307 144.51 35.5197 144.196 35.8898C143.882 36.2598 143.724 36.7008 143.724 37.2047C143.724 37.7087 143.89 38.1339 144.196 38.4961C144.503 38.8504 144.966 39.0315 145.58 39.0315C145.823 39.0315 146.059 38.9843 146.303 38.8898C146.546 38.7953 146.759 38.6614 146.932 38.4882V38.4803ZM152.143 34.3622C152.583 34.3622 152.984 34.4488 153.338 34.6142C153.699 34.7795 153.982 34.9921 154.203 35.2598C154.423 35.5276 154.588 35.8268 154.706 36.1575C154.823 36.4882 154.879 36.8346 154.871 37.189C154.871 37.5512 154.808 37.8898 154.698 38.2126C154.588 38.5354 154.423 38.8346 154.203 39.0945C153.982 39.3622 153.699 39.5669 153.338 39.7323C152.976 39.8898 152.575 39.9685 152.119 39.9685C151.664 39.9685 151.255 39.8898 150.893 39.7402C150.532 39.5827 150.241 39.3779 150.021 39.1102C149.801 38.8504 149.636 38.5512 149.518 38.2283C149.408 37.9055 149.353 37.5591 149.353 37.1968C149.353 36.3622 149.62 35.6772 150.154 35.1496C150.689 34.622 151.349 34.3543 152.143 34.3543V34.3622ZM150.359 37.2126C150.374 37.7165 150.524 38.1496 150.815 38.5039C151.105 38.8661 151.538 39.0394 152.127 39.0394C152.717 39.0394 153.149 38.8583 153.44 38.4961C153.731 38.1339 153.88 37.7008 153.888 37.1968C153.896 36.6929 153.754 36.252 153.456 35.8661C153.157 35.4803 152.725 35.2835 152.151 35.2756C151.593 35.2756 151.153 35.4567 150.822 35.8268C150.5 36.1968 150.343 36.6535 150.359 37.2047V37.2126ZM161.977 34.4646L159.744 39.874H158.691L156.451 34.4646H157.59L159.21 38.6614L160.837 34.4646H161.977ZM168.084 39.8583H164.06V34.4724H168.084V35.4567H165.066V36.6929H167.974V37.6378H165.066V38.8504H168.084V39.8583ZM175.324 39.7874V39.8583H174.16L172.604 38.0551H171.574V39.8583H170.56V34.4646C170.843 34.4646 171.268 34.4646 171.834 34.4646C172.4 34.4646 172.832 34.4646 173.115 34.4646C173.72 34.4646 174.192 34.6457 174.538 34.9921C174.883 35.3386 175.056 35.7559 175.056 36.252C175.056 36.6614 174.946 37.0236 174.734 37.3307C174.522 37.6378 174.176 37.8425 173.697 37.9449L175.324 39.7874ZM173.123 35.4173H171.582V37.1417H173.123C173.421 37.1417 173.657 37.0551 173.807 36.8898C173.964 36.7244 174.042 36.5197 174.042 36.2835C174.042 36.0472 173.964 35.8425 173.807 35.6772C173.649 35.5118 173.421 35.4252 173.123 35.4252V35.4173ZM177.902 34.4646L179.27 36.6929L180.7 34.4646H181.919V34.5118L179.773 37.6299V39.8583H178.759V37.6299L176.691 34.5118V34.4646H177.902ZM191.493 38.4803L192.184 39.1811C191.65 39.7165 190.966 39.9842 190.141 39.9842C189.661 39.9842 189.229 39.9055 188.859 39.748C188.482 39.5906 188.183 39.378 187.963 39.1181C187.743 38.8504 187.57 38.5591 187.46 38.2362C187.35 37.9134 187.287 37.5669 187.287 37.2047C187.287 36.8425 187.342 36.4961 187.46 36.1654C187.578 35.8346 187.751 35.5276 187.979 35.2598C188.207 34.9843 188.506 34.7717 188.883 34.6063C189.26 34.4409 189.677 34.3622 190.141 34.3622C190.895 34.3622 191.556 34.6378 192.114 35.189L191.438 35.8425C191.092 35.5039 190.66 35.3307 190.141 35.3307C189.535 35.3307 189.072 35.5197 188.757 35.8898C188.443 36.2598 188.286 36.7008 188.286 37.2047C188.286 37.7087 188.451 38.1339 188.757 38.4961C189.064 38.8504 189.528 39.0315 190.141 39.0315C190.384 39.0315 190.62 38.9843 190.864 38.8898C191.108 38.7953 191.32 38.6614 191.493 38.4882V38.4803ZM198.402 39.8583H194.378V34.4724H198.402V35.4567H195.384V36.6929H198.3V37.6378H195.384V38.8504H198.402V39.8583ZM201.704 34.4646L204.565 38.0866V34.4646H205.579V39.8504H204.753L201.892 36.2598V39.8504H200.878V34.4646H201.704ZM209.446 39.8583V35.3937H207.74V34.4724H212.166V35.3937H210.46V39.8583H209.446ZM218.352 39.8583H214.328V34.4724H218.352V35.4567H215.334V36.6929H218.242V37.6378H215.334V38.8504H218.352V39.8583ZM225.592 39.7874V39.8583H224.428L222.872 38.0551H221.842V39.8583H220.828V34.4646C221.111 34.4646 221.536 34.4646 222.102 34.4646C222.668 34.4646 223.1 34.4646 223.383 34.4646C223.988 34.4646 224.46 34.6457 224.806 34.9921C225.151 35.3386 225.324 35.7559 225.324 36.252C225.324 36.6614 225.214 37.0236 225.002 37.3307C224.79 37.6378 224.444 37.8425 223.965 37.9449L225.592 39.7874ZM223.391 35.4173H221.85V37.1417H223.391C223.689 37.1417 223.925 37.0551 224.082 36.8898C224.24 36.7244 224.318 36.5197 224.318 36.2835C224.318 36.0472 224.24 35.8425 224.082 35.6772C223.925 35.5118 223.697 35.4252 223.399 35.4252L223.391 35.4173ZM231.833 35.3543L231.023 35.7717C230.929 35.6063 230.756 35.4646 230.52 35.3465C230.284 35.2283 230.025 35.1654 229.75 35.1654C229.388 35.1654 229.113 35.2283 228.917 35.3622C228.728 35.4961 228.634 35.6693 228.634 35.8819C228.634 36.0315 228.689 36.1496 228.807 36.2441C228.924 36.3386 229.066 36.4094 229.223 36.4488C229.38 36.4882 229.585 36.5276 229.828 36.5591C230.08 36.5906 230.3 36.622 230.489 36.6693C230.677 36.7087 230.874 36.7717 231.07 36.8583C231.267 36.9449 231.432 37.0394 231.558 37.1575C231.684 37.2756 231.786 37.4252 231.872 37.622C231.951 37.8189 231.998 38.0315 231.998 38.2835C231.998 38.6693 231.888 38.9921 231.676 39.2598C231.463 39.5276 231.188 39.7165 230.858 39.8268C230.528 39.9449 230.159 40 229.742 40C228.539 40 227.753 39.5591 227.4 38.6772L228.248 38.2362C228.359 38.5197 228.555 38.7323 228.83 38.874C229.105 39.0157 229.412 39.0866 229.766 39.0866C230.119 39.0866 230.41 39.0157 230.646 38.8898C230.882 38.7559 231 38.5512 231 38.2835C231 37.8425 230.583 37.5748 229.758 37.4882C229.443 37.4488 229.176 37.4016 228.956 37.3465C228.736 37.2913 228.516 37.1968 228.296 37.0787C228.083 36.9606 227.918 36.8031 227.808 36.5905C227.698 36.3858 227.643 36.1417 227.643 35.8504C227.643 35.5039 227.753 35.2047 227.966 34.9606C228.178 34.7165 228.437 34.5433 228.744 34.4409C229.042 34.3386 229.373 34.2913 229.726 34.2835C230.787 34.2835 231.495 34.6378 231.841 35.3543H231.833Z" fill="#002B5C"/>
<path d="M231.998 29.2047H59.9629V30.2205H231.998V29.2047Z" fill="#B9975B"/>
<path fill-rule="evenodd" clip-rule="evenodd" d="M25.8954 34.5276L23.2543 27.937C22.2167 31.8268 18.821 34.622 14.6156 34.622C9.53771 34.622 5.53671 30.5591 5.53671 25.4173C5.53671 20.2756 9.48268 16.2126 14.6156 16.2126C18.4279 16.2126 21.5328 18.4646 22.8691 21.7244C22.8849 21.7638 22.9006 21.811 22.9242 21.8504C25.4002 28.0157 27.7426 33.4882 30.1715 39.5354H35.6975L47.0874 11.2913C38.2128 16.811 36.4914 23.3779 32.9306 32.3622L28.4344 20.937L27.8291 19.4094C26.1155 15.685 22.8141 12.7244 18.8996 11.4803C17.5161 11.0394 16.0541 10.811 14.5527 10.8504C11.212 10.7795 8.05207 11.9921 5.52885 14.0079V0H0.0029115V25.4173C-0.162159 33.2677 6.71579 40.1575 14.5527 39.9921C19.0175 40.0866 23.1757 37.8898 25.8954 34.5276Z" fill="#B9975B"/>
<path fill-rule="evenodd" clip-rule="evenodd" d="M32.9227 17.937C35.0058 17.937 36.7115 16.2362 36.7115 14.1417C36.7115 12.0472 35.0136 10.3465 32.9227 10.3465C30.8318 10.3465 29.134 12.0472 29.134 14.1417C29.134 16.2362 30.8318 17.937 32.9227 17.937Z" fill="#B9975B"/>
</svg>
