<svg width="134" height="26" viewBox="0 0 134 26" fill="none" xmlns="http://www.w3.org/2000/svg">
<path d="M61.0894 17.043C67.34 17.043 70.5592 15.0774 70.5592 10.8546C70.5592 7.21512 67.9032 4.77812 62.1398 4.77812C55.1742 4.77812 52.3824 7.8823 51.7354 13.4674C50.7089 13.3995 49.6146 13.3795 48.0969 13.3795V12.4647C48.0969 6.81162 45.7524 4.75814 39.5217 4.75814C36.4623 4.75814 33.7823 5.20559 32.1528 5.87677L32.4004 10.3872C33.8303 9.62815 35.9511 8.88906 37.984 8.88906C40.8437 8.88906 41.7144 10.0716 41.7144 12.8881V13.3116H40.7319C33.6306 13.3116 30.3275 15.457 30.3275 19.4561C30.3275 23.4551 32.3804 25.98 38.2117 25.98C41.2711 25.98 44.3065 25.5565 48.2167 25.5565C47.9251 23.9026 47.9251 21.5375 47.9251 19.9035C47.9251 19.0565 47.969 18.0258 48.013 16.8433C49.6865 16.8672 50.9166 16.9112 51.7194 16.9312C52.3225 23.543 55.7374 25.976 62.8827 25.976C65.5187 25.976 68.1747 25.5286 69.5806 24.8814L69.333 20.3709C67.9471 21.1739 66.03 21.8211 63.9051 21.8211C60.3984 21.8211 58.5013 19.9914 58.5013 17.1069V16.9711C59.1043 17.0151 60.3545 17.039 61.0934 17.039L61.0894 17.043ZM39.7214 22.0449C37.5567 22.0449 36.638 21.3297 36.638 19.5C36.638 17.6703 37.8203 16.7514 40.7679 16.7514C41.0354 16.7514 41.3709 16.7514 41.6146 16.7754C41.5906 18.4733 41.5706 20.4388 41.6585 21.8012C41.1233 21.957 40.3645 22.0449 39.7174 22.0449H39.7214ZM58.4573 13.5593V13.4474C58.4573 10.6109 59.352 8.5335 61.9641 8.5335C63.4378 8.5335 64.3764 9.31653 64.3764 10.6988C64.3764 12.6644 63.0584 13.5793 60.3345 13.5793C59.6635 13.6033 58.9725 13.6033 58.4573 13.5553V13.5593ZM83.3759 21.4856C81.2751 21.4856 80.672 20.6586 80.672 17.6223V9.75999H84.8018V5.40535H80.7359C80.7359 3.86324 80.8477 1.58605 80.9835 0H77.1653C76.65 3.8193 75.5557 5.78488 72.0729 6.36417C72.0489 7.3909 72.1168 8.79717 72.0729 9.75999H74.3934C74.3495 11.9253 74.2816 15.8805 74.2816 19.5C74.2816 24.1023 76.67 25.976 81.1353 25.976C83.324 25.976 84.9096 25.6644 85.4448 25.5086L85.1772 21.0181C84.7738 21.2858 84.015 21.4856 83.3679 21.4856H83.3759ZM126.943 12.4647C126.943 6.81162 124.598 4.75814 118.367 4.75814C115.308 4.75814 112.628 5.20559 110.999 5.87677L111.242 10.3872C112.672 9.62815 114.793 8.88906 116.826 8.88906C119.685 8.88906 120.556 10.0716 120.556 12.8881V13.3116H119.574C112.448 13.3116 109.169 15.457 109.169 19.4561C109.169 23.4551 111.222 25.98 117.053 25.98C120.113 25.98 123.148 25.5565 127.058 25.5565C126.767 23.9026 126.767 21.5375 126.767 19.9035C126.767 18.0738 126.947 15.4809 126.947 12.4647H126.943ZM118.567 22.0449C116.402 22.0449 115.484 21.3297 115.484 19.5C115.484 17.6703 116.666 16.7514 119.614 16.7514C119.881 16.7514 120.217 16.7514 120.46 16.7754C120.46 18.4733 120.416 20.4388 120.504 21.8012C119.969 21.957 119.21 22.0449 118.563 22.0449H118.567ZM106.577 16.1481C106.577 14.4502 106.621 12.173 106.621 12.173C106.621 7.05931 104.388 4.77812 98.0459 4.77812C94.4953 4.77812 91.9511 5.40535 87.997 5.40535C88.2207 8.98095 88.2207 13.4235 88.2207 16.1721C88.2446 18.9647 88.1328 23.9665 87.997 25.5765H94.8068C94.651 23.9665 94.5152 19.3242 94.5392 16.1721C94.5392 14.3863 94.5632 12.217 94.6271 9.33651C95.2981 9.11278 96.1687 8.93301 97.1073 8.93301C99.4958 8.93301 100.255 10.0516 100.255 13.1318C100.255 13.1318 100.299 15.0535 100.299 16.1921C100.299 18.9846 100.211 23.9865 100.075 25.5965H106.885C106.685 23.9226 106.549 19.2763 106.573 16.1481H106.577ZM22.2796 3.86325C21.6525 3.23602 20.8058 2.90443 19.979 2.90443C19.1523 2.90443 18.3055 3.21604 17.6785 3.86325L13.9281 7.6386L10.1538 3.86325C9.50674 3.21604 8.67998 2.90443 7.85322 2.90443C7.02646 2.90443 6.1997 3.21604 5.55267 3.86325L0.955567 8.44161C-0.318522 9.71604 -0.318522 11.7695 0.955567 13.0439L13.9081 26L26.8607 13.0439C28.1348 11.7695 28.1348 9.71604 26.8607 8.44161L22.2836 3.86325H22.2796ZM132.346 5.94069C132.346 5.24954 131.923 4.9579 131.116 4.9579H129.822V8.32975H130.381V6.87953H130.897L131.767 8.32975H132.394L131.456 6.83159C131.991 6.78765 132.35 6.53995 132.35 5.93669L132.346 5.94069ZM130.381 6.43208V5.44929H131.052C131.388 5.44929 131.787 5.49324 131.787 5.89674C131.787 6.38814 131.432 6.43208 131.004 6.43208H130.377H130.381ZM131.008 3.55163C129.399 3.55163 127.993 4.78211 127.993 6.61186C127.993 8.44161 129.243 9.6721 131.008 9.6721C132.618 9.6721 134 8.46558 134 6.61186C133.976 4.75814 132.594 3.55163 131.008 3.55163ZM131.008 9.11278C129.559 9.11278 128.664 7.97419 128.664 6.58789C128.664 5.08974 129.69 4.063 131.008 4.063C132.327 4.063 133.329 5.11371 133.329 6.58789C133.329 8.08605 132.303 9.11278 131.008 9.11278Z" fill="#7D3F98"/>
<path d="M61.0894 17.043C67.34 17.043 70.5592 15.0774 70.5592 10.8546C70.5592 7.21512 67.9032 4.77812 62.1398 4.77812C55.1742 4.77812 52.3824 7.8823 51.7354 13.4674C50.7089 13.3995 49.6146 13.3795 48.0969 13.3795V12.4647C48.0969 6.81162 45.7524 4.75814 39.5217 4.75814C36.4623 4.75814 33.7823 5.20559 32.1528 5.87677L32.4004 10.3872C33.8303 9.62815 35.9511 8.88906 37.984 8.88906C40.8437 8.88906 41.7144 10.0716 41.7144 12.8881V13.3116H40.7319C33.6306 13.3116 30.3275 15.457 30.3275 19.4561C30.3275 23.4551 32.3804 25.98 38.2117 25.98C41.2711 25.98 44.3065 25.5565 48.2167 25.5565C47.9251 23.9026 47.9251 21.5375 47.9251 19.9035C47.9251 19.0565 47.969 18.0258 48.013 16.8433C49.6865 16.8672 50.9166 16.9112 51.7194 16.9312C52.3225 23.543 55.7374 25.976 62.8827 25.976C65.5187 25.976 68.1747 25.5286 69.5806 24.8814L69.333 20.3709C67.9471 21.1739 66.03 21.8211 63.9051 21.8211C60.3984 21.8211 58.5013 19.9914 58.5013 17.1069V16.9711C59.1043 17.0151 60.3545 17.039 61.0934 17.039L61.0894 17.043ZM39.7214 22.0449C37.5567 22.0449 36.638 21.3297 36.638 19.5C36.638 17.6703 37.8203 16.7514 40.7679 16.7514C41.0354 16.7514 41.3709 16.7514 41.6146 16.7754C41.5906 18.4733 41.5706 20.4388 41.6585 21.8012C41.1233 21.957 40.3645 22.0449 39.7174 22.0449H39.7214ZM58.4573 13.5593V13.4474C58.4573 10.6109 59.352 8.5335 61.9641 8.5335C63.4378 8.5335 64.3764 9.31653 64.3764 10.6988C64.3764 12.6644 63.0584 13.5793 60.3345 13.5793C59.6635 13.6033 58.9725 13.6033 58.4573 13.5553V13.5593ZM83.3759 21.4856C81.2751 21.4856 80.672 20.6586 80.672 17.6223V9.75999H84.8018V5.40535H80.7359C80.7359 3.86324 80.8477 1.58605 80.9835 0H77.1653C76.65 3.8193 75.5557 5.78488 72.0729 6.36417C72.0489 7.3909 72.1168 8.79717 72.0729 9.75999H74.3934C74.3495 11.9253 74.2816 15.8805 74.2816 19.5C74.2816 24.1023 76.67 25.976 81.1353 25.976C83.324 25.976 84.9096 25.6644 85.4448 25.5086L85.1772 21.0181C84.7738 21.2858 84.015 21.4856 83.3679 21.4856H83.3759ZM126.943 12.4647C126.943 6.81162 124.598 4.75814 118.367 4.75814C115.308 4.75814 112.628 5.20559 110.999 5.87677L111.242 10.3872C112.672 9.62815 114.793 8.88906 116.826 8.88906C119.685 8.88906 120.556 10.0716 120.556 12.8881V13.3116H119.574C112.448 13.3116 109.169 15.457 109.169 19.4561C109.169 23.4551 111.222 25.98 117.053 25.98C120.113 25.98 123.148 25.5565 127.058 25.5565C126.767 23.9026 126.767 21.5375 126.767 19.9035C126.767 18.0738 126.947 15.4809 126.947 12.4647H126.943ZM118.567 22.0449C116.402 22.0449 115.484 21.3297 115.484 19.5C115.484 17.6703 116.666 16.7514 119.614 16.7514C119.881 16.7514 120.217 16.7514 120.46 16.7754C120.46 18.4733 120.416 20.4388 120.504 21.8012C119.969 21.957 119.21 22.0449 118.563 22.0449H118.567ZM106.577 16.1481C106.577 14.4502 106.621 12.173 106.621 12.173C106.621 7.05931 104.388 4.77812 98.0459 4.77812C94.4953 4.77812 91.9511 5.40535 87.997 5.40535C88.2207 8.98095 88.2207 13.4235 88.2207 16.1721C88.2446 18.9647 88.1328 23.9665 87.997 25.5765H94.8068C94.651 23.9665 94.5152 19.3242 94.5392 16.1721C94.5392 14.3863 94.5632 12.217 94.6271 9.33651C95.2981 9.11278 96.1687 8.93301 97.1073 8.93301C99.4958 8.93301 100.255 10.0516 100.255 13.1318C100.255 13.1318 100.299 15.0535 100.299 16.1921C100.299 18.9846 100.211 23.9865 100.075 25.5965H106.885C106.685 23.9226 106.549 19.2763 106.573 16.1481H106.577ZM22.2796 3.86325C21.6525 3.23602 20.8058 2.90443 19.979 2.90443C19.1523 2.90443 18.3055 3.21604 17.6785 3.86325L13.9281 7.6386L10.1538 3.86325C9.50674 3.21604 8.67998 2.90443 7.85322 2.90443C7.02646 2.90443 6.1997 3.21604 5.55267 3.86325L0.955567 8.44161C-0.318522 9.71604 -0.318522 11.7695 0.955567 13.0439L13.9081 26L26.8607 13.0439C28.1348 11.7695 28.1348 9.71604 26.8607 8.44161L22.2836 3.86325H22.2796ZM132.346 5.94069C132.346 5.24954 131.923 4.9579 131.116 4.9579H129.822V8.32975H130.381V6.87953H130.897L131.767 8.32975H132.394L131.456 6.83159C131.991 6.78765 132.35 6.53995 132.35 5.93669L132.346 5.94069ZM130.381 6.43208V5.44929H131.052C131.388 5.44929 131.787 5.49324 131.787 5.89674C131.787 6.38814 131.432 6.43208 131.004 6.43208H130.377H130.381ZM131.008 3.55163C129.399 3.55163 127.993 4.78211 127.993 6.61186C127.993 8.44161 129.243 9.6721 131.008 9.6721C132.618 9.6721 134 8.46558 134 6.61186C133.976 4.75814 132.594 3.55163 131.008 3.55163ZM131.008 9.11278C129.559 9.11278 128.664 7.97419 128.664 6.58789C128.664 5.08974 129.69 4.063 131.008 4.063C132.327 4.063 133.329 5.11371 133.329 6.58789C133.329 8.08605 132.303 9.11278 131.008 9.11278Z" fill="#7D3F98"/>
<path d="M61.0894 17.043C67.34 17.043 70.5592 15.0774 70.5592 10.8546C70.5592 7.21512 67.9032 4.77812 62.1398 4.77812C55.1742 4.77812 52.3824 7.8823 51.7354 13.4674C50.7089 13.3995 49.6146 13.3795 48.0969 13.3795V12.4647C48.0969 6.81162 45.7524 4.75814 39.5217 4.75814C36.4623 4.75814 33.7823 5.20559 32.1528 5.87677L32.4004 10.3872C33.8303 9.62815 35.9511 8.88906 37.984 8.88906C40.8437 8.88906 41.7144 10.0716 41.7144 12.8881V13.3116H40.7319C33.6306 13.3116 30.3275 15.457 30.3275 19.4561C30.3275 23.4551 32.3804 25.98 38.2117 25.98C41.2711 25.98 44.3065 25.5565 48.2167 25.5565C47.9251 23.9026 47.9251 21.5375 47.9251 19.9035C47.9251 19.0565 47.969 18.0258 48.013 16.8433C49.6865 16.8672 50.9166 16.9112 51.7194 16.9312C52.3225 23.543 55.7374 25.976 62.8827 25.976C65.5187 25.976 68.1747 25.5286 69.5806 24.8814L69.333 20.3709C67.9471 21.1739 66.03 21.8211 63.9051 21.8211C60.3984 21.8211 58.5013 19.9914 58.5013 17.1069V16.9711C59.1043 17.0151 60.3545 17.039 61.0934 17.039L61.0894 17.043ZM39.7214 22.0449C37.5567 22.0449 36.638 21.3297 36.638 19.5C36.638 17.6703 37.8203 16.7514 40.7679 16.7514C41.0354 16.7514 41.3709 16.7514 41.6146 16.7754C41.5906 18.4733 41.5706 20.4388 41.6585 21.8012C41.1233 21.957 40.3645 22.0449 39.7174 22.0449H39.7214ZM58.4573 13.5593V13.4474C58.4573 10.6109 59.352 8.5335 61.9641 8.5335C63.4378 8.5335 64.3764 9.31653 64.3764 10.6988C64.3764 12.6644 63.0584 13.5793 60.3345 13.5793C59.6635 13.6033 58.9725 13.6033 58.4573 13.5553V13.5593ZM83.3759 21.4856C81.2751 21.4856 80.672 20.6586 80.672 17.6223V9.75999H84.8018V5.40535H80.7359C80.7359 3.86324 80.8477 1.58605 80.9835 0H77.1653C76.65 3.8193 75.5557 5.78488 72.0729 6.36417C72.0489 7.3909 72.1168 8.79717 72.0729 9.75999H74.3934C74.3495 11.9253 74.2816 15.8805 74.2816 19.5C74.2816 24.1023 76.67 25.976 81.1353 25.976C83.324 25.976 84.9096 25.6644 85.4448 25.5086L85.1772 21.0181C84.7738 21.2858 84.015 21.4856 83.3679 21.4856H83.3759ZM126.943 12.4647C126.943 6.81162 124.598 4.75814 118.367 4.75814C115.308 4.75814 112.628 5.20559 110.999 5.87677L111.242 10.3872C112.672 9.62815 114.793 8.88906 116.826 8.88906C119.685 8.88906 120.556 10.0716 120.556 12.8881V13.3116H119.574C112.448 13.3116 109.169 15.457 109.169 19.4561C109.169 23.4551 111.222 25.98 117.053 25.98C120.113 25.98 123.148 25.5565 127.058 25.5565C126.767 23.9026 126.767 21.5375 126.767 19.9035C126.767 18.0738 126.947 15.4809 126.947 12.4647H126.943ZM118.567 22.0449C116.402 22.0449 115.484 21.3297 115.484 19.5C115.484 17.6703 116.666 16.7514 119.614 16.7514C119.881 16.7514 120.217 16.7514 120.46 16.7754C120.46 18.4733 120.416 20.4388 120.504 21.8012C119.969 21.957 119.21 22.0449 118.563 22.0449H118.567ZM106.577 16.1481C106.577 14.4502 106.621 12.173 106.621 12.173C106.621 7.05931 104.388 4.77812 98.0459 4.77812C94.4953 4.77812 91.9511 5.40535 87.997 5.40535C88.2207 8.98095 88.2207 13.4235 88.2207 16.1721C88.2446 18.9647 88.1328 23.9665 87.997 25.5765H94.8068C94.651 23.9665 94.5152 19.3242 94.5392 16.1721C94.5392 14.3863 94.5632 12.217 94.6271 9.33651C95.2981 9.11278 96.1687 8.93301 97.1073 8.93301C99.4958 8.93301 100.255 10.0516 100.255 13.1318C100.255 13.1318 100.299 15.0535 100.299 16.1921C100.299 18.9846 100.211 23.9865 100.075 25.5965H106.885C106.685 23.9226 106.549 19.2763 106.573 16.1481H106.577ZM22.2796 3.86325C21.6525 3.23602 20.8058 2.90443 19.979 2.90443C19.1523 2.90443 18.3055 3.21604 17.6785 3.86325L13.9281 7.6386L10.1538 3.86325C9.50674 3.21604 8.67998 2.90443 7.85322 2.90443C7.02646 2.90443 6.1997 3.21604 5.55267 3.86325L0.955567 8.44161C-0.318522 9.71604 -0.318522 11.7695 0.955567 13.0439L13.9081 26L26.8607 13.0439C28.1348 11.7695 28.1348 9.71604 26.8607 8.44161L22.2836 3.86325H22.2796ZM132.346 5.94069C132.346 5.24954 131.923 4.9579 131.116 4.9579H129.822V8.32975H130.381V6.87953H130.897L131.767 8.32975H132.394L131.456 6.83159C131.991 6.78765 132.35 6.53995 132.35 5.93669L132.346 5.94069ZM130.381 6.43208V5.44929H131.052C131.388 5.44929 131.787 5.49324 131.787 5.89674C131.787 6.38814 131.432 6.43208 131.004 6.43208H130.377H130.381ZM131.008 3.55163C129.399 3.55163 127.993 4.78211 127.993 6.61186C127.993 8.44161 129.243 9.6721 131.008 9.6721C132.618 9.6721 134 8.46558 134 6.61186C133.976 4.75814 132.594 3.55163 131.008 3.55163ZM131.008 9.11278C129.559 9.11278 128.664 7.97419 128.664 6.58789C128.664 5.08974 129.69 4.063 131.008 4.063C132.327 4.063 133.329 5.11371 133.329 6.58789C133.329 8.08605 132.303 9.11278 131.008 9.11278Z" fill="#7D3F98"/>
<path d="M61.0894 17.043C67.34 17.043 70.5592 15.0774 70.5592 10.8546C70.5592 7.21512 67.9032 4.77812 62.1398 4.77812C55.1742 4.77812 52.3824 7.8823 51.7354 13.4674C50.7089 13.3995 49.6146 13.3795 48.0969 13.3795V12.4647C48.0969 6.81162 45.7524 4.75814 39.5217 4.75814C36.4623 4.75814 33.7823 5.20559 32.1528 5.87677L32.4004 10.3872C33.8303 9.62815 35.9511 8.88906 37.984 8.88906C40.8437 8.88906 41.7144 10.0716 41.7144 12.8881V13.3116H40.7319C33.6306 13.3116 30.3275 15.457 30.3275 19.4561C30.3275 23.4551 32.3804 25.98 38.2117 25.98C41.2711 25.98 44.3065 25.5565 48.2167 25.5565C47.9251 23.9026 47.9251 21.5375 47.9251 19.9035C47.9251 19.0565 47.969 18.0258 48.013 16.8433C49.6865 16.8672 50.9166 16.9112 51.7194 16.9312C52.3225 23.543 55.7374 25.976 62.8827 25.976C65.5187 25.976 68.1747 25.5286 69.5806 24.8814L69.333 20.3709C67.9471 21.1739 66.03 21.8211 63.9051 21.8211C60.3984 21.8211 58.5013 19.9914 58.5013 17.1069V16.9711C59.1043 17.0151 60.3545 17.039 61.0934 17.039L61.0894 17.043ZM39.7214 22.0449C37.5567 22.0449 36.638 21.3297 36.638 19.5C36.638 17.6703 37.8203 16.7514 40.7679 16.7514C41.0354 16.7514 41.3709 16.7514 41.6146 16.7754C41.5906 18.4733 41.5706 20.4388 41.6585 21.8012C41.1233 21.957 40.3645 22.0449 39.7174 22.0449H39.7214ZM58.4573 13.5593V13.4474C58.4573 10.6109 59.352 8.5335 61.9641 8.5335C63.4378 8.5335 64.3764 9.31653 64.3764 10.6988C64.3764 12.6644 63.0584 13.5793 60.3345 13.5793C59.6635 13.6033 58.9725 13.6033 58.4573 13.5553V13.5593ZM83.3759 21.4856C81.2751 21.4856 80.672 20.6586 80.672 17.6223V9.75999H84.8018V5.40535H80.7359C80.7359 3.86324 80.8477 1.58605 80.9835 0H77.1653C76.65 3.8193 75.5557 5.78488 72.0729 6.36417C72.0489 7.3909 72.1168 8.79717 72.0729 9.75999H74.3934C74.3495 11.9253 74.2816 15.8805 74.2816 19.5C74.2816 24.1023 76.67 25.976 81.1353 25.976C83.324 25.976 84.9096 25.6644 85.4448 25.5086L85.1772 21.0181C84.7738 21.2858 84.015 21.4856 83.3679 21.4856H83.3759ZM126.943 12.4647C126.943 6.81162 124.598 4.75814 118.367 4.75814C115.308 4.75814 112.628 5.20559 110.999 5.87677L111.242 10.3872C112.672 9.62815 114.793 8.88906 116.826 8.88906C119.685 8.88906 120.556 10.0716 120.556 12.8881V13.3116H119.574C112.448 13.3116 109.169 15.457 109.169 19.4561C109.169 23.4551 111.222 25.98 117.053 25.98C120.113 25.98 123.148 25.5565 127.058 25.5565C126.767 23.9026 126.767 21.5375 126.767 19.9035C126.767 18.0738 126.947 15.4809 126.947 12.4647H126.943ZM118.567 22.0449C116.402 22.0449 115.484 21.3297 115.484 19.5C115.484 17.6703 116.666 16.7514 119.614 16.7514C119.881 16.7514 120.217 16.7514 120.46 16.7754C120.46 18.4733 120.416 20.4388 120.504 21.8012C119.969 21.957 119.21 22.0449 118.563 22.0449H118.567ZM106.577 16.1481C106.577 14.4502 106.621 12.173 106.621 12.173C106.621 7.05931 104.388 4.77812 98.0459 4.77812C94.4953 4.77812 91.9511 5.40535 87.997 5.40535C88.2207 8.98095 88.2207 13.4235 88.2207 16.1721C88.2446 18.9647 88.1328 23.9665 87.997 25.5765H94.8068C94.651 23.9665 94.5152 19.3242 94.5392 16.1721C94.5392 14.3863 94.5632 12.217 94.6271 9.33651C95.2981 9.11278 96.1687 8.93301 97.1073 8.93301C99.4958 8.93301 100.255 10.0516 100.255 13.1318C100.255 13.1318 100.299 15.0535 100.299 16.1921C100.299 18.9846 100.211 23.9865 100.075 25.5965H106.885C106.685 23.9226 106.549 19.2763 106.573 16.1481H106.577ZM22.2796 3.86325C21.6525 3.23602 20.8058 2.90443 19.979 2.90443C19.1523 2.90443 18.3055 3.21604 17.6785 3.86325L13.9281 7.6386L10.1538 3.86325C9.50674 3.21604 8.67998 2.90443 7.85322 2.90443C7.02646 2.90443 6.1997 3.21604 5.55267 3.86325L0.955567 8.44161C-0.318522 9.71604 -0.318522 11.7695 0.955567 13.0439L13.9081 26L26.8607 13.0439C28.1348 11.7695 28.1348 9.71604 26.8607 8.44161L22.2836 3.86325H22.2796ZM132.346 5.94069C132.346 5.24954 131.923 4.9579 131.116 4.9579H129.822V8.32975H130.381V6.87953H130.897L131.767 8.32975H132.394L131.456 6.83159C131.991 6.78765 132.35 6.53995 132.35 5.93669L132.346 5.94069ZM130.381 6.43208V5.44929H131.052C131.388 5.44929 131.787 5.49324 131.787 5.89674C131.787 6.38814 131.432 6.43208 131.004 6.43208H130.377H130.381ZM131.008 3.55163C129.399 3.55163 127.993 4.78211 127.993 6.61186C127.993 8.44161 129.243 9.6721 131.008 9.6721C132.618 9.6721 134 8.46558 134 6.61186C133.976 4.75814 132.594 3.55163 131.008 3.55163ZM131.008 9.11278C129.559 9.11278 128.664 7.97419 128.664 6.58789C128.664 5.08974 129.69 4.063 131.008 4.063C132.327 4.063 133.329 5.11371 133.329 6.58789C133.329 8.08605 132.303 9.11278 131.008 9.11278Z" fill="#7D3F98"/>
</svg>
